<mxfile host="app.diagrams.net" modified="2023-07-27T00:51:36.345Z" agent="Mozilla/5.0 (Windows NT 10.0; Win64; x64) AppleWebKit/537.36 (KHTML, like Gecko) Chrome/115.0.0.0 Safari/537.36" etag="pnL_dFcosvJfLow_blCj" version="21.6.5" type="github">
  <diagram name="Page-1" id="7DgHcyQjMPjCuYHU71ve">
    <mxGraphModel dx="1050" dy="623" grid="1" gridSize="10" guides="1" tooltips="1" connect="1" arrows="1" fold="1" page="1" pageScale="1" pageWidth="850" pageHeight="1100" math="0" shadow="0">
      <root>
        <mxCell id="0" />
        <mxCell id="1" parent="0" />
        <mxCell id="zYYhCRCpc0Jn-sl63B6V-5" style="edgeStyle=orthogonalEdgeStyle;rounded=0;orthogonalLoop=1;jettySize=auto;html=1;exitX=0.5;exitY=1;exitDx=0;exitDy=0;entryX=0.5;entryY=0;entryDx=0;entryDy=0;" edge="1" parent="1" source="zYYhCRCpc0Jn-sl63B6V-1" target="zYYhCRCpc0Jn-sl63B6V-3">
          <mxGeometry relative="1" as="geometry" />
        </mxCell>
        <mxCell id="zYYhCRCpc0Jn-sl63B6V-6" style="edgeStyle=orthogonalEdgeStyle;rounded=0;orthogonalLoop=1;jettySize=auto;html=1;exitX=0.5;exitY=1;exitDx=0;exitDy=0;" edge="1" parent="1" source="zYYhCRCpc0Jn-sl63B6V-1" target="zYYhCRCpc0Jn-sl63B6V-4">
          <mxGeometry relative="1" as="geometry" />
        </mxCell>
        <mxCell id="zYYhCRCpc0Jn-sl63B6V-1" value="Start" style="ellipse;whiteSpace=wrap;html=1;" vertex="1" parent="1">
          <mxGeometry x="320" y="160" width="80" height="40" as="geometry" />
        </mxCell>
        <mxCell id="zYYhCRCpc0Jn-sl63B6V-24" style="edgeStyle=orthogonalEdgeStyle;rounded=0;orthogonalLoop=1;jettySize=auto;html=1;exitX=0.5;exitY=1;exitDx=0;exitDy=0;entryX=0.5;entryY=0;entryDx=0;entryDy=0;" edge="1" parent="1" source="zYYhCRCpc0Jn-sl63B6V-2" target="zYYhCRCpc0Jn-sl63B6V-10">
          <mxGeometry relative="1" as="geometry" />
        </mxCell>
        <mxCell id="zYYhCRCpc0Jn-sl63B6V-2" value="Identify the data requirements to be integrated" style="rounded=0;whiteSpace=wrap;html=1;" vertex="1" parent="1">
          <mxGeometry x="180" y="300" width="160" height="50" as="geometry" />
        </mxCell>
        <mxCell id="zYYhCRCpc0Jn-sl63B6V-9" style="edgeStyle=orthogonalEdgeStyle;rounded=0;orthogonalLoop=1;jettySize=auto;html=1;exitX=0.5;exitY=1;exitDx=0;exitDy=0;" edge="1" parent="1" source="zYYhCRCpc0Jn-sl63B6V-3" target="zYYhCRCpc0Jn-sl63B6V-2">
          <mxGeometry relative="1" as="geometry" />
        </mxCell>
        <mxCell id="zYYhCRCpc0Jn-sl63B6V-3" value="Blockchain Ledger" style="shape=parallelogram;perimeter=parallelogramPerimeter;whiteSpace=wrap;html=1;fixedSize=1;" vertex="1" parent="1">
          <mxGeometry x="180" y="240" width="160" height="40" as="geometry" />
        </mxCell>
        <mxCell id="zYYhCRCpc0Jn-sl63B6V-13" style="edgeStyle=orthogonalEdgeStyle;rounded=0;orthogonalLoop=1;jettySize=auto;html=1;exitX=0.5;exitY=1;exitDx=0;exitDy=0;entryX=0.5;entryY=0;entryDx=0;entryDy=0;" edge="1" parent="1" source="zYYhCRCpc0Jn-sl63B6V-4" target="zYYhCRCpc0Jn-sl63B6V-12">
          <mxGeometry relative="1" as="geometry" />
        </mxCell>
        <mxCell id="zYYhCRCpc0Jn-sl63B6V-4" value="ERP Database" style="shape=parallelogram;perimeter=parallelogramPerimeter;whiteSpace=wrap;html=1;fixedSize=1;" vertex="1" parent="1">
          <mxGeometry x="380" y="240" width="160" height="40" as="geometry" />
        </mxCell>
        <mxCell id="zYYhCRCpc0Jn-sl63B6V-25" style="edgeStyle=orthogonalEdgeStyle;rounded=0;orthogonalLoop=1;jettySize=auto;html=1;exitX=0.5;exitY=1;exitDx=0;exitDy=0;entryX=0.5;entryY=0;entryDx=0;entryDy=0;" edge="1" parent="1" source="zYYhCRCpc0Jn-sl63B6V-10" target="zYYhCRCpc0Jn-sl63B6V-22">
          <mxGeometry relative="1" as="geometry" />
        </mxCell>
        <mxCell id="zYYhCRCpc0Jn-sl63B6V-10" value="Develop the Fabric SDK API" style="rounded=0;whiteSpace=wrap;html=1;" vertex="1" parent="1">
          <mxGeometry x="180" y="370" width="160" height="50" as="geometry" />
        </mxCell>
        <mxCell id="zYYhCRCpc0Jn-sl63B6V-27" style="edgeStyle=orthogonalEdgeStyle;rounded=0;orthogonalLoop=1;jettySize=auto;html=1;exitX=0.5;exitY=1;exitDx=0;exitDy=0;entryX=0.5;entryY=0;entryDx=0;entryDy=0;" edge="1" parent="1" source="zYYhCRCpc0Jn-sl63B6V-12" target="zYYhCRCpc0Jn-sl63B6V-15">
          <mxGeometry relative="1" as="geometry" />
        </mxCell>
        <mxCell id="zYYhCRCpc0Jn-sl63B6V-12" value="Identify the data requirements to be integrated" style="rounded=0;whiteSpace=wrap;html=1;" vertex="1" parent="1">
          <mxGeometry x="380" y="300" width="160" height="50" as="geometry" />
        </mxCell>
        <mxCell id="zYYhCRCpc0Jn-sl63B6V-20" style="edgeStyle=orthogonalEdgeStyle;rounded=0;orthogonalLoop=1;jettySize=auto;html=1;exitX=1;exitY=0.5;exitDx=0;exitDy=0;entryX=0;entryY=0.5;entryDx=0;entryDy=0;" edge="1" parent="1" source="zYYhCRCpc0Jn-sl63B6V-14" target="zYYhCRCpc0Jn-sl63B6V-16">
          <mxGeometry relative="1" as="geometry" />
        </mxCell>
        <mxCell id="zYYhCRCpc0Jn-sl63B6V-14" value="Develop REST API Controller" style="rounded=0;whiteSpace=wrap;html=1;" vertex="1" parent="1">
          <mxGeometry x="180" y="520" width="160" height="50" as="geometry" />
        </mxCell>
        <mxCell id="zYYhCRCpc0Jn-sl63B6V-21" style="edgeStyle=orthogonalEdgeStyle;rounded=0;orthogonalLoop=1;jettySize=auto;html=1;exitX=0.5;exitY=1;exitDx=0;exitDy=0;entryX=0.5;entryY=0;entryDx=0;entryDy=0;" edge="1" parent="1" source="zYYhCRCpc0Jn-sl63B6V-15" target="zYYhCRCpc0Jn-sl63B6V-16">
          <mxGeometry relative="1" as="geometry" />
        </mxCell>
        <mxCell id="zYYhCRCpc0Jn-sl63B6V-15" value="Identify the number of API end points" style="rounded=0;whiteSpace=wrap;html=1;" vertex="1" parent="1">
          <mxGeometry x="380" y="446" width="160" height="50" as="geometry" />
        </mxCell>
        <mxCell id="zYYhCRCpc0Jn-sl63B6V-29" style="edgeStyle=orthogonalEdgeStyle;rounded=0;orthogonalLoop=1;jettySize=auto;html=1;exitX=0.5;exitY=1;exitDx=0;exitDy=0;entryX=0.5;entryY=0;entryDx=0;entryDy=0;" edge="1" parent="1" source="zYYhCRCpc0Jn-sl63B6V-16" target="zYYhCRCpc0Jn-sl63B6V-28">
          <mxGeometry relative="1" as="geometry" />
        </mxCell>
        <mxCell id="zYYhCRCpc0Jn-sl63B6V-16" value="Develop REST API Controller" style="rounded=0;whiteSpace=wrap;html=1;" vertex="1" parent="1">
          <mxGeometry x="380" y="520" width="160" height="50" as="geometry" />
        </mxCell>
        <mxCell id="zYYhCRCpc0Jn-sl63B6V-26" style="edgeStyle=orthogonalEdgeStyle;rounded=0;orthogonalLoop=1;jettySize=auto;html=1;exitX=0.5;exitY=1;exitDx=0;exitDy=0;entryX=0.5;entryY=0;entryDx=0;entryDy=0;" edge="1" parent="1" source="zYYhCRCpc0Jn-sl63B6V-22" target="zYYhCRCpc0Jn-sl63B6V-14">
          <mxGeometry relative="1" as="geometry" />
        </mxCell>
        <mxCell id="zYYhCRCpc0Jn-sl63B6V-22" value="Identify the number of API end points" style="rounded=0;whiteSpace=wrap;html=1;" vertex="1" parent="1">
          <mxGeometry x="180" y="446" width="160" height="50" as="geometry" />
        </mxCell>
        <mxCell id="zYYhCRCpc0Jn-sl63B6V-28" value="REST API end point" style="shape=parallelogram;perimeter=parallelogramPerimeter;whiteSpace=wrap;html=1;fixedSize=1;" vertex="1" parent="1">
          <mxGeometry x="380" y="600" width="160" height="40" as="geometry" />
        </mxCell>
      </root>
    </mxGraphModel>
  </diagram>
</mxfile>
